<svg width="124" height="44" viewBox="0 0 124 44" fill="none" xmlns="http://www.w3.org/2000/svg">
<path d="M23.784 30.184C23.784 32.104 22.872 33.256 20.712 33.256H5.256C1.848 33.256 0.552 31.144 0.552 28.6V6.088C0.552 4.12 1.32 3.304 3.288 3.304H20.808C22.968 3.304 23.784 4.072 23.784 6.184V30.184ZM35.448 38.152C35.448 39.688 34.728 40.312 33.432 40.312H30.552C29.256 40.312 28.536 39.688 28.536 38.152V3.016C28.536 1.432 29.256 0.855999 30.552 0.855999H33.432C34.728 0.855999 35.448 1.432 35.448 3.016V13.864H39.096C40.872 13.864 41.256 14.44 41.256 15.928V18.136C41.256 19.72 40.872 20.296 39.096 20.296H35.448V38.152ZM16.872 26.92V9.448H7.464V26.536C7.464 27.016 7.56 27.16 7.896 27.16H16.632C16.872 27.16 16.872 27.064 16.872 26.92ZM78.6923 9.064C78.6923 14.104 74.5163 17.896 64.8203 17.896H60.2603C50.6603 17.896 46.3403 14.104 46.3403 9.064C46.3403 3.976 50.6603 0.279998 60.2603 0.279998H64.8203C74.5163 0.279998 78.6923 3.976 78.6923 9.064ZM71.5883 9.112C71.5883 7.192 69.8603 5.896 64.3883 5.896H60.6923C55.0283 5.896 53.4443 7.192 53.4443 9.112C53.4443 10.84 55.0283 12.232 60.6923 12.232H64.3883C69.8603 12.232 71.5883 10.84 71.5883 9.112ZM81.5723 23.416C81.5723 24.904 81.1883 25.48 79.4123 25.48H45.6683C43.8443 25.48 43.4603 24.904 43.4603 23.416V21.832C43.4603 20.296 43.8443 19.72 45.6683 19.72H79.4123C81.1883 19.72 81.5723 20.296 81.5723 21.832V23.416ZM78.3563 40.744C78.3563 42.712 77.4923 43.816 75.3323 43.816H51.2363C47.7323 43.816 46.6763 42.28 46.6763 39.256V30.568C46.6763 28.648 47.4443 27.832 49.4123 27.832H75.6203C77.6363 27.832 78.3563 28.648 78.3563 30.568V40.744ZM71.3963 38.008V33.352H53.6363V37.576C53.6363 38.152 53.7323 38.296 54.3083 38.296H71.1562C71.3483 38.296 71.3963 38.2 71.3963 38.008ZM123.267 38.152C123.267 39.688 122.547 40.312 121.203 40.312H118.371C117.075 40.312 116.355 39.688 116.355 38.152V3.016C116.355 1.432 117.075 0.855999 118.371 0.855999H121.203C122.547 0.855999 123.267 1.432 123.267 3.016V38.152ZM111.171 20.968C111.171 30.424 104.595 34.12 98.9794 34.12C93.0274 34.12 86.6914 30.424 86.6914 20.968V15.64C86.6914 5.752 93.0274 2.104 98.9794 2.104C104.595 2.104 111.171 5.656 111.171 15.64V20.968ZM104.355 20.728V15.832C104.355 11.32 102.387 8.104 98.9794 8.104C95.4754 8.104 93.5554 11.32 93.5554 15.832V20.728C93.5554 25.048 95.5234 28.12 98.9794 28.12C102.387 28.12 104.355 25.048 104.355 20.728Z" fill="#A960B0"/>
</svg>
